<svg width="180" height="60" fill="none" xmlns="http://www.w3.org/2000/svg"><g clip-path="url(#a)"><path d="M165.666 0H14.342c-.551 0-1.096 0-1.647.003-.46.003-.917.012-1.382.02-1.01.011-2.018.1-3.014.264-.995.168-1.96.486-2.86.94-.899.46-1.72 1.056-2.434 1.769a9.389 9.389 0 0 0-1.773 2.431 9.882 9.882 0 0 0-.94 2.855 19.437 19.437 0 0 0-.27 3.003c-.013.46-.015.922-.022 1.382v34.671c.007.466.009.917.023 1.383.012 1.006.102 2.01.27 3.003a9.86 9.86 0 0 0 .94 2.856 9.313 9.313 0 0 0 1.772 2.422A9.435 9.435 0 0 0 5.44 58.77c.9.456 1.864.775 2.859.946.997.163 2.004.252 3.014.265.465.01.922.016 1.382.016.55.003 1.096.003 1.647.003h151.324c.541 0 1.09 0 1.63-.003.459 0 .929-.006 1.387-.016a20.03 20.03 0 0 0 3.009-.265c.998-.172 1.965-.49 2.87-.946a9.452 9.452 0 0 0 2.433-1.768 9.587 9.587 0 0 0 1.777-2.422c.454-.9.768-1.862.931-2.856.168-.993.261-1.997.279-3.003.006-.466.006-.917.006-1.383.012-.545.012-1.087.012-1.64V14.303c0-.549 0-1.094-.012-1.637 0-.46 0-.922-.006-1.382a20.155 20.155 0 0 0-.279-3.003 9.885 9.885 0 0 0-.931-2.855 9.716 9.716 0 0 0-4.21-4.2 10.206 10.206 0 0 0-2.87-.94 19.69 19.69 0 0 0-3.009-.265c-.458-.007-.928-.016-1.387-.019-.54-.003-1.089-.003-1.63-.003Z" fill="#A6A6A6"/><path d="M12.703 58.688c-.458 0-.906-.006-1.36-.017a19.136 19.136 0 0 1-2.812-.244 8.866 8.866 0 0 1-2.492-.822 8.128 8.128 0 0 1-2.102-1.525 7.98 7.98 0 0 1-1.535-2.095 8.566 8.566 0 0 1-.816-2.486 18.57 18.57 0 0 1-.25-2.812c-.01-.316-.023-1.37-.023-1.37v-34.65s.013-1.038.022-1.342c.012-.941.095-1.88.25-2.808.143-.868.418-1.709.817-2.494a8.061 8.061 0 0 1 1.527-2.096 8.37 8.37 0 0 1 2.11-1.534 8.776 8.776 0 0 1 2.486-.816 18.981 18.981 0 0 1 2.821-.246l1.357-.018H167.29l1.374.019c.936.01 1.871.092 2.795.243a8.945 8.945 0 0 1 2.513.822 8.397 8.397 0 0 1 3.633 3.63c.392.78.663 1.613.805 2.473.156.936.244 1.883.262 2.831.004.425.004.881.004 1.335.012.563.012 1.098.012 1.638v31.393c0 .545 0 1.077-.012 1.613 0 .488 0 .935-.006 1.395-.017.931-.103 1.86-.257 2.78a8.579 8.579 0 0 1-.812 2.505 8.226 8.226 0 0 1-1.528 2.078 8.128 8.128 0 0 1-2.105 1.534 8.835 8.835 0 0 1-2.509.825c-.93.151-1.87.233-2.812.244-.44.01-.902.017-1.35.017l-1.63.002-152.963-.002Z" fill="#000"/><path d="M37.258 30.451c.016-1.252.35-2.48.969-3.569a7.433 7.433 0 0 1 2.575-2.66 7.613 7.613 0 0 0-6.003-3.236c-2.526-.264-4.975 1.508-6.262 1.508-1.312 0-3.294-1.481-5.428-1.438a8.013 8.013 0 0 0-3.905 1.162 7.984 7.984 0 0 0-2.823 2.93c-2.91 5.023-.74 12.404 2.047 16.464 1.395 1.988 3.024 4.209 5.156 4.13 2.087-.086 2.866-1.326 5.384-1.326 2.495 0 3.227 1.326 5.402 1.276 2.239-.036 3.65-1.997 4.995-4.004a16.423 16.423 0 0 0 2.284-4.638 7.189 7.189 0 0 1-3.192-2.64 7.158 7.158 0 0 1-1.2-3.959ZM33.149 18.317a7.295 7.295 0 0 0 1.676-5.236A7.464 7.464 0 0 0 30 15.57a6.95 6.95 0 0 0-1.72 5.042 6.182 6.182 0 0 0 4.869-2.295ZM63.632 40.71h-7.12l-1.71 5.034h-3.016l6.744-18.627h3.133l6.744 18.627H65.34L63.63 40.71Zm-6.383-2.324h5.644l-2.782-8.17h-.078l-2.784 8.17ZM82.972 38.955c0 4.22-2.265 6.931-5.684 6.931a4.627 4.627 0 0 1-4.284-2.376h-.065v6.727h-2.796V32.164h2.706v2.258h.052a4.842 4.842 0 0 1 4.336-2.4c3.456 0 5.735 2.724 5.735 6.933Zm-2.873 0c0-2.75-1.425-4.557-3.6-4.557-2.135 0-3.572 1.845-3.572 4.557 0 2.736 1.437 4.569 3.573 4.569 2.174 0 3.599-1.795 3.599-4.57ZM97.961 38.955c0 4.22-2.265 6.931-5.683 6.931a4.627 4.627 0 0 1-4.285-2.376h-.065v6.727h-2.795V32.164h2.705v2.258h.052a4.842 4.842 0 0 1 4.336-2.4c3.457 0 5.735 2.724 5.735 6.933Zm-2.873 0c0-2.75-1.425-4.557-3.6-4.557-2.135 0-3.572 1.845-3.572 4.557 0 2.736 1.437 4.569 3.573 4.569 2.174 0 3.599-1.795 3.599-4.57ZM107.868 40.554c.207 1.847 2.006 3.06 4.465 3.06 2.357 0 4.052-1.213 4.052-2.878 0-1.446-1.023-2.312-3.444-2.905l-2.42-.582c-3.43-.826-5.023-2.425-5.023-5.021 0-3.214 2.809-5.421 6.797-5.421 3.947 0 6.653 2.207 6.744 5.421h-2.822c-.169-1.859-1.71-2.98-3.962-2.98-2.251 0-3.792 1.134-3.792 2.787 0 1.317.984 2.092 3.391 2.685l2.058.504c3.833.903 5.425 2.439 5.425 5.163 0 3.485-2.783 5.668-7.211 5.668-4.142 0-6.939-2.132-7.12-5.5h2.862ZM125.37 28.95v3.214h2.59v2.207h-2.59v7.487c0 1.163.519 1.705 1.657 1.705.308-.005.615-.027.92-.065v2.195a7.694 7.694 0 0 1-1.553.129c-2.757 0-3.832-1.033-3.832-3.667v-7.784h-1.981v-2.207h1.981V28.95h2.808ZM129.46 38.955c0-4.273 2.524-6.958 6.459-6.958 3.948 0 6.46 2.685 6.46 6.958 0 4.284-2.498 6.958-6.46 6.958-3.96 0-6.459-2.674-6.459-6.958Zm10.071 0c0-2.932-1.347-4.661-3.612-4.661s-3.611 1.743-3.611 4.66c0 2.944 1.346 4.66 3.611 4.66s3.612-1.716 3.612-4.66ZM144.684 32.163h2.666v2.312h.065c.18-.722.604-1.36 1.201-1.807a3.255 3.255 0 0 1 2.075-.647c.322 0 .643.034.958.104v2.608a3.92 3.92 0 0 0-1.256-.169 2.824 2.824 0 0 0-2.178.895 2.815 2.815 0 0 0-.735 2.23v8.055h-2.796v-13.58ZM164.537 41.755c-.376 2.466-2.784 4.158-5.864 4.158-3.962 0-6.421-2.647-6.421-6.894 0-4.26 2.472-7.022 6.303-7.022 3.768 0 6.138 2.58 6.138 6.698v.955h-9.619v.169a3.53 3.53 0 0 0 2.194 3.587c.466.19.967.278 1.47.26a3.078 3.078 0 0 0 3.145-1.91h2.654Zm-9.45-4.053h6.809a3.25 3.25 0 0 0-.915-2.451 3.274 3.274 0 0 0-2.426-.996 3.453 3.453 0 0 0-3.206 2.124c-.174.42-.263.87-.262 1.323ZM56.899 13.097a3.979 3.979 0 0 1 3.167 1.226 3.957 3.957 0 0 1 1.056 3.22c0 2.86-1.55 4.504-4.223 4.504h-3.242v-8.95h3.242ZM55.05 20.78h1.692a2.83 2.83 0 0 0 2.248-.907 2.814 2.814 0 0 0 .712-2.312 2.815 2.815 0 0 0-.723-2.296 2.83 2.83 0 0 0-2.237-.905H55.05v6.42ZM62.697 18.667a3.19 3.19 0 0 1 .82-2.457 3.209 3.209 0 0 1 2.374-1.048 3.217 3.217 0 0 1 2.374 1.048 3.198 3.198 0 0 1 .82 2.457 3.193 3.193 0 0 1-1.894 3.236 3.217 3.217 0 0 1-3.677-.776 3.198 3.198 0 0 1-.817-2.46Zm5.013 0c0-1.464-.66-2.32-1.817-2.32-1.162 0-1.816.856-1.816 2.32 0 1.475.654 2.325 1.816 2.325 1.158 0 1.817-.855 1.817-2.325ZM77.577 22.047H76.19l-1.4-4.975h-.105l-1.394 4.975h-1.374l-1.867-6.755h1.356l1.213 5.155h.1l1.393-5.154h1.282l1.393 5.154h.106l1.207-5.154h1.337l-1.86 6.754ZM81.007 15.292h1.287v1.073h.1a2.024 2.024 0 0 1 2.021-1.203 2.21 2.21 0 0 1 1.778.694 2.194 2.194 0 0 1 .567 1.818v4.373h-1.337v-4.038c0-1.086-.473-1.625-1.462-1.625a1.558 1.558 0 0 0-1.545 1.053 1.546 1.546 0 0 0-.072.658v3.952h-1.337v-6.755ZM88.89 12.656h1.336v9.39H88.89v-9.39ZM92.085 18.667a3.19 3.19 0 0 1 .82-2.457 3.21 3.21 0 0 1 2.374-1.048 3.217 3.217 0 0 1 2.375 1.048 3.198 3.198 0 0 1 .82 2.457 3.192 3.192 0 0 1-.818 2.46 3.21 3.21 0 0 1-3.677.776 3.209 3.209 0 0 1-1.747-1.92 3.191 3.191 0 0 1-.147-1.316Zm5.013 0c0-1.464-.66-2.32-1.817-2.32-1.162 0-1.816.856-1.816 2.32 0 1.476.654 2.325 1.816 2.325 1.157 0 1.817-.855 1.817-2.325ZM99.881 20.137c0-1.216.908-1.917 2.519-2.017l1.835-.105v-.583c0-.713-.473-1.116-1.387-1.116-.746 0-1.263.273-1.411.75h-1.295c.137-1.16 1.231-1.904 2.768-1.904 1.698 0 2.656.843 2.656 2.27v4.615h-1.287v-.95h-.106a2.274 2.274 0 0 1-2.034 1.061 2.053 2.053 0 0 1-2.079-1.194 2.036 2.036 0 0 1-.179-.827Zm4.354-.577v-.565l-1.654.105c-.933.063-1.356.379-1.356.974 0 .608.529.962 1.256.962a1.601 1.601 0 0 0 1.585-.865c.097-.19.155-.398.169-.611ZM107.323 18.667c0-2.135 1.1-3.487 2.811-3.487a2.228 2.228 0 0 1 2.077 1.185h.1v-3.71h1.337v9.392h-1.281V20.98h-.106a2.345 2.345 0 0 1-2.127 1.178c-1.723 0-2.811-1.352-2.811-3.491Zm1.381 0c0 1.432.677 2.294 1.809 2.294 1.127 0 1.823-.874 1.823-2.288 0-1.408-.703-2.295-1.823-2.295-1.125 0-1.809.868-1.809 2.289ZM119.179 18.667a3.187 3.187 0 0 1 .819-2.457 3.213 3.213 0 0 1 5.42 1.142c.141.423.192.87.149 1.315.044.444-.007.892-.148 1.316a3.214 3.214 0 0 1-6.093 0 3.195 3.195 0 0 1-.147-1.316Zm5.013 0c0-1.464-.659-2.32-1.817-2.32-1.162 0-1.815.856-1.815 2.32 0 1.475.653 2.325 1.815 2.325 1.158 0 1.817-.855 1.817-2.325ZM127.361 15.292h1.287v1.073h.099a2.03 2.03 0 0 1 2.022-1.203 2.21 2.21 0 0 1 1.778.694 2.195 2.195 0 0 1 .566 1.818v4.373h-1.337v-4.038c0-1.086-.473-1.625-1.461-1.625a1.56 1.56 0 0 0-1.203.485 1.538 1.538 0 0 0-.415 1.226v3.952h-1.336v-6.755ZM140.667 13.61v1.713h1.467v1.123h-1.467v3.473c0 .708.292 1.017.957 1.017.171 0 .341-.01.51-.03v1.11c-.24.043-.483.066-.727.068-1.487 0-2.079-.521-2.079-1.823v-3.815h-1.075v-1.123h1.075v-1.712h1.339ZM143.96 12.656h1.325v3.722h.106a2.087 2.087 0 0 1 2.065-1.21 2.237 2.237 0 0 1 1.76.712 2.223 2.223 0 0 1 .573 1.806v4.36h-1.338v-4.031c0-1.079-.504-1.625-1.449-1.625a1.584 1.584 0 0 0-1.617 1.036 1.555 1.555 0 0 0-.088.676v3.945h-1.337v-9.391ZM157.583 20.223a2.754 2.754 0 0 1-2.935 1.954 3.086 3.086 0 0 1-2.374-1.02 3.067 3.067 0 0 1-.755-2.465 3.115 3.115 0 0 1 3.123-3.53c1.885 0 3.022 1.284 3.022 3.405v.465h-4.783v.075a1.776 1.776 0 0 0 1.078 1.79c.229.099.476.148.726.145a1.626 1.626 0 0 0 1.611-.819h1.287Zm-4.702-2.176h3.421a1.618 1.618 0 0 0-.445-1.244 1.64 1.64 0 0 0-1.222-.506 1.738 1.738 0 0 0-1.627 1.076c-.087.214-.13.443-.127.674Z" fill="#fff"/></g><defs><clipPath id="a"><path fill="#fff" d="M0 0h180v60H0z"/></clipPath></defs></svg>