<svg width="24" height="24" fill="none" xmlns="http://www.w3.org/2000/svg"><path d="M12.02 5.436a6.453 6.453 0 0 0-6.479 6.441c-.005 3.568 2.875 6.475 6.419 6.486a6.462 6.462 0 0 0 6.49-6.458c0-3.57-2.872-6.463-6.43-6.469ZM5.6 15.572a.92.92 0 0 0-1.226-.33c-.126.065-.247.14-.37.211-.686.397-1.375.787-2.055 1.192a.907.907 0 0 0-.417 1.07c.12.394.477.656.916.653a.689.689 0 0 0 .39-.096c.83-.476 1.668-.944 2.488-1.442.433-.265.537-.824.274-1.258ZM18.31 8.024c.115.374.483.65.875.652a.782.782 0 0 0 .412-.093c.839-.48 1.681-.953 2.507-1.448.42-.253.532-.796.296-1.217-.239-.424-.754-.622-1.185-.388-.87.473-1.723.972-2.57 1.48-.332.205-.45.637-.335 1.014Zm-6.117-3.405c.516-.003.916-.413.92-.952.002-.452 0-.906 0-1.358V.928C13.1.405 12.702.003 12.195 0a.921.921 0 0 0-.933.936 227.77 227.77 0 0 0 0 2.742.929.929 0 0 0 .93.94Zm.003 14.76a.921.921 0 0 0-.933.935 227.77 227.77 0 0 0 0 2.742.927.927 0 0 0 .927.944c.516-.003.917-.413.92-.952.002-.452 0-.906 0-1.36v-1.382c-.009-.52-.407-.925-.914-.928Zm-8.517-6.55c.521-.002.913-.373.935-.88.022-.51-.354-.952-.878-.963-.951-.02-1.903-.02-2.852 0a.917.917 0 0 0-.883.941c.01.512.42.9.943.903.46.003.919 0 1.38 0 .452 0 .902.003 1.355 0Zm19.44-1.843c-.952-.02-1.904-.02-2.853 0a.917.917 0 0 0-.883.941c.013.51.422.9.946.903.46.003.919 0 1.38 0 .452 0 .902.003 1.355 0 .52-.003.913-.374.935-.88.022-.51-.354-.953-.88-.964Zm-6.869-5.17c.324-.005.598-.126.763-.404.493-.832.984-1.668 1.45-2.513.237-.427.058-.958-.359-1.2-.42-.246-.965-.15-1.217.266a54.139 54.139 0 0 0-1.463 2.536c-.32.6.149 1.313.826 1.315Zm5.799 10.829c-.79-.465-1.586-.928-2.384-1.376-.474-.267-1.017-.116-1.275.333-.266.462-.113.996.38 1.282.766.446 1.534.89 2.302 1.33.16.09.327.165.505.151a.93.93 0 0 0 .9-.657.91.91 0 0 0-.428-1.063ZM7.042 5.167a.874.874 0 0 0 .804.46.913.913 0 0 0 .8-1.371 87.18 87.18 0 0 0-1.39-2.412.904.904 0 0 0-1.26-.33.916.916 0 0 0-.334 1.263c.453.801.916 1.597 1.38 2.39ZM1.965 7.2c.784.46 1.574.911 2.361 1.368a.83.83 0 0 0 .425.124c.464-.003.826-.273.938-.66a.904.904 0 0 0-.41-1.05c-.796-.47-1.597-.935-2.404-1.39-.472-.267-1.023-.11-1.275.339-.26.462-.116.988.364 1.269Zm6.462 11.291c-.464-.275-1.012-.121-1.303.377-.447.768-.889 1.539-1.333 2.307-.088.154-.154.314-.143.482a.917.917 0 0 0 .653.908.902.902 0 0 0 1.064-.418c.461-.78.908-1.564 1.358-2.349.28-.49.154-1.04-.296-1.307Zm8.544.179c-.293-.501-.839-.655-1.3-.383-.45.267-.579.818-.299 1.308.223.393.453.782.68 1.175.231.4.45.801.692 1.195a.918.918 0 0 0 1.075.399c.376-.118.631-.479.631-.925.011-.143-.052-.306-.14-.46-.447-.77-.889-1.541-1.338-2.309Z" fill="#fff"/></svg>